<svg aria-hidden="true" style="position: absolute; width: 0; height: 0; overflow: hidden;" version="1.1" xmlns="http://www.w3.org/2000/svg" xmlns:xlink="http://www.w3.org/1999/xlink">
<defs>
<symbol id="icon-arrow-down" viewBox="0 0 32 32">
<path fill="#fff" style="fill: var(--color1, #fff)" d="M32 16c0 8.837-7.163 16-16 16s-16-7.163-16-16c0-8.837 7.163-16 16-16s16 7.163 16 16z"></path>
<path fill="none" stroke="#1556ee" style="stroke: var(--color2, #1556ee)" stroke-linejoin="miter" stroke-linecap="round" stroke-miterlimit="4" stroke-width="2" d="M22 14l-6 6-6-6"></path>
</symbol>
<symbol id="arrow-left-up" viewBox="0 0 32 32">
<path d="M20.781 9.333l-13.266 13.266c-0.521 0.521-0.521 1.365 0 1.886s1.365 0.521 1.886 0l13.266-13.266v7.448c0 0.736 0.597 1.333 1.333 1.333s1.333-0.597 1.333-1.333v-9.333c0-1.473-1.194-2.667-2.667-2.667h-9.333c-0.736 0-1.333 0.597-1.333 1.333s0.597 1.333 1.333 1.333h7.448z"></path>
</symbol>
</defs>
</svg>

